<svg xmlns="http://www.w3.org/2000/svg" width="1600" height="520" viewBox="0 0 1600 520">
  <defs>
    <linearGradient id="bg" x1="0" y1="0" x2="1" y2="1">
      <stop offset="0%" stop-color="#0f172a"/>
      <stop offset="50%" stop-color="#1d4ed8"/>
      <stop offset="100%" stop-color="#38bdf8"/>
    </linearGradient>
    <radialGradient id="glow" cx="0.5" cy="0.5" r="0.7">
      <stop offset="0%" stop-color="#93c5fd" stop-opacity="0.7"/>
      <stop offset="100%" stop-color="#93c5fd" stop-opacity="0"/>
    </radialGradient>
  </defs>
  <rect width="1600" height="520" rx="28" fill="url(#bg)"/>
  <circle cx="200" cy="120" r="150" fill="url(#glow)"/>
  <circle cx="1400" cy="390" r="180" fill="url(#glow)"/>

  <text x="800" y="78" text-anchor="middle" fill="#ffffff" font-family="Segoe UI, Arial" font-size="54" font-weight="700">AI ROBOT DANCE EXPERIENCE</text>
  <text x="800" y="118" text-anchor="middle" fill="#dbeafe" font-family="Segoe UI, Arial" font-size="24">FR/EN assistant • animated visuals • storytelling • dashboard</text>

  <g transform="translate(360 310)">
    <rect x="-54" y="-112" width="108" height="78" rx="14" fill="#e2e8f0" stroke="#1e293b" stroke-width="4"/>
    <circle cx="-20" cy="-74" r="9" fill="#0ea5e9"/>
    <circle cx="20" cy="-74" r="9" fill="#0ea5e9"/>
    <rect x="-46" y="-26" width="92" height="96" rx="16" fill="#cbd5e1" stroke="#1e293b" stroke-width="4"/>
    <rect x="-84" y="-8" width="32" height="12" rx="6" fill="#cbd5e1"/>
    <rect x="52" y="-8" width="32" height="12" rx="6" fill="#cbd5e1"/>
    <rect x="-34" y="76" width="20" height="50" rx="8" fill="#cbd5e1"/>
    <rect x="14" y="76" width="20" height="50" rx="8" fill="#cbd5e1"/>
    <animateTransform attributeName="transform" type="translate" values="360 310;360 270;360 310" dur="1.4s" repeatCount="indefinite"/>
  </g>

  <g transform="translate(800 330)">
    <rect x="-58" y="-118" width="116" height="84" rx="14" fill="#f1f5f9" stroke="#0f172a" stroke-width="4"/>
    <circle cx="-22" cy="-78" r="10" fill="#22d3ee"/>
    <circle cx="22" cy="-78" r="10" fill="#22d3ee"/>
    <rect x="-48" y="-28" width="96" height="102" rx="16" fill="#e2e8f0" stroke="#0f172a" stroke-width="4"/>
    <rect x="-88" y="-8" width="34" height="12" rx="6" fill="#e2e8f0"/>
    <rect x="54" y="-8" width="34" height="12" rx="6" fill="#e2e8f0"/>
    <rect x="-34" y="80" width="20" height="50" rx="8" fill="#e2e8f0"/>
    <rect x="14" y="80" width="20" height="50" rx="8" fill="#e2e8f0"/>
    <animateTransform attributeName="transform" type="translate" values="800 330;800 278;800 330" dur="1.2s" repeatCount="indefinite"/>
  </g>

  <g transform="translate(1240 310)">
    <rect x="-54" y="-112" width="108" height="78" rx="14" fill="#e2e8f0" stroke="#1e293b" stroke-width="4"/>
    <circle cx="-20" cy="-74" r="9" fill="#0ea5e9"/>
    <circle cx="20" cy="-74" r="9" fill="#0ea5e9"/>
    <rect x="-46" y="-26" width="92" height="96" rx="16" fill="#cbd5e1" stroke="#1e293b" stroke-width="4"/>
    <rect x="-84" y="-8" width="32" height="12" rx="6" fill="#cbd5e1"/>
    <rect x="52" y="-8" width="32" height="12" rx="6" fill="#cbd5e1"/>
    <rect x="-34" y="76" width="20" height="50" rx="8" fill="#cbd5e1"/>
    <rect x="14" y="76" width="20" height="50" rx="8" fill="#cbd5e1"/>
    <animateTransform attributeName="transform" type="translate" values="1240 310;1240 270;1240 310" dur="1.5s" repeatCount="indefinite"/>
  </g>

  <text x="250" y="210" font-size="44">✨<animateTransform attributeName="transform" type="translate" values="0 0;0 -24;0 0" dur="2.7s" repeatCount="indefinite"/></text>
  <text x="520" y="175" font-size="42">🤖<animateTransform attributeName="transform" type="translate" values="0 0;0 -20;0 0" dur="2.1s" repeatCount="indefinite"/></text>
  <text x="700" y="210" font-size="42">🚀<animateTransform attributeName="transform" type="translate" values="0 0;0 -24;0 0" dur="2.5s" repeatCount="indefinite"/></text>
  <text x="990" y="180" font-size="40">🧠<animateTransform attributeName="transform" type="translate" values="0 0;0 -22;0 0" dur="2.3s" repeatCount="indefinite"/></text>
  <text x="1320" y="210" font-size="44">📊<animateTransform attributeName="transform" type="translate" values="0 0;0 -24;0 0" dur="2.8s" repeatCount="indefinite"/></text>

  <text x="800" y="486" text-anchor="middle" fill="#e2e8f0" font-family="Segoe UI, Arial" font-size="22">Floating emojis and 3D-like motion for premium profile branding</text>
</svg>
